<svg width="34" height="34" viewBox="0 0 34 34" fill="none" xmlns="http://www.w3.org/2000/svg">
<path d="M29.75 3.4H24.65V0.85C24.65 0.624566 24.5604 0.408365 24.401 0.248959C24.2416 0.0895535 24.0254 0 23.8 0C23.5746 0 23.3584 0.0895535 23.199 0.248959C23.0396 0.408365 22.95 0.624566 22.95 0.85V3.4H11.05V0.85C11.05 0.624566 10.9604 0.408365 10.801 0.248959C10.6416 0.0895535 10.4254 0 10.2 0C9.97457 0 9.75837 0.0895535 9.59896 0.248959C9.43955 0.408365 9.35 0.624566 9.35 0.85V3.4H4.25C3.12324 3.40135 2.04302 3.84955 1.24629 4.64629C0.44955 5.44302 0.00134968 6.52324 0 7.65V29.75C0.00134968 30.8768 0.44955 31.957 1.24629 32.7537C2.04302 33.5504 3.12324 33.9986 4.25 34H29.75C30.8769 33.9991 31.9574 33.551 32.7542 32.7542C33.551 31.9574 33.9991 30.8769 34 29.75V7.65C33.9991 6.52311 33.551 5.44263 32.7542 4.64579C31.9574 3.84896 30.8769 3.4009 29.75 3.4ZM32.3 29.75C32.3 30.4263 32.0313 31.0749 31.5531 31.5531C31.0749 32.0313 30.4263 32.3 29.75 32.3H4.25C3.5737 32.3 2.9251 32.0313 2.44688 31.5531C1.96866 31.0749 1.7 30.4263 1.7 29.75V15.3H32.3V29.75ZM32.3 13.6H1.7V7.65C1.7 6.2424 2.839 5.1 4.25 5.1H9.35V7.65C9.35 7.87543 9.43955 8.09163 9.59896 8.25104C9.75837 8.41045 9.97457 8.5 10.2 8.5C10.4254 8.5 10.6416 8.41045 10.801 8.25104C10.9604 8.09163 11.05 7.87543 11.05 7.65V5.1H22.95V7.65C22.95 7.87543 23.0396 8.09163 23.199 8.25104C23.3584 8.41045 23.5746 8.5 23.8 8.5C24.0254 8.5 24.2416 8.41045 24.401 8.25104C24.5604 8.09163 24.65 7.87543 24.65 7.65V5.1H29.75C30.4263 5.1 31.0749 5.36866 31.5531 5.84688C32.0313 6.3251 32.3 6.9737 32.3 7.65V13.6Z" fill="#F8F8F8"/>
</svg>
