<svg width="35" height="25" viewBox="0 0 35 25" fill="none" xmlns="http://www.w3.org/2000/svg">
<path d="M34.2902 1.22767L11.2902 24.2277C11.2234 24.2945 11.1441 24.3475 11.0569 24.3837C10.9696 24.4198 10.8761 24.4385 10.7816 24.4385C10.6872 24.4385 10.5937 24.4198 10.5064 24.3837C10.4192 24.3475 10.3399 24.2945 10.2731 24.2277L0.210634 14.1652C0.0757669 14.0303 -4.92267e-09 13.8474 0 13.6567C4.92267e-09 13.4659 0.0757676 13.283 0.210634 13.1481C0.345501 13.0133 0.528419 12.9375 0.71915 12.9375C0.90988 12.9375 1.0928 13.0133 1.22767 13.1481L10.7816 22.7021L33.2731 0.210634C33.408 0.0757676 33.5909 0 33.7817 0C33.9724 0 34.1553 0.0757676 34.2902 0.210634C34.425 0.345501 34.5008 0.52842 34.5008 0.71915C34.5008 0.909881 34.425 1.0928 34.2902 1.22767Z" fill="#F8F8F8"/>
</svg>
