<svg width="62" height="62" viewBox="0 0 62 62" fill="none" xmlns="http://www.w3.org/2000/svg">
<path d="M50.1801 11.8357C47.6658 9.29656 44.6746 7.27922 41.3784 5.89959C38.0821 4.51995 34.5457 3.8052 30.9724 3.79641C27.3991 3.78761 23.8592 4.48494 20.5562 5.84834C17.2532 7.21173 14.2521 9.21432 11.7254 11.7411C9.19863 14.2678 7.19605 17.2689 5.83265 20.5719C4.46926 23.8749 3.77193 27.4148 3.78072 30.9881C3.78952 34.5614 4.50426 38.0978 5.8839 41.3941C7.26354 44.6903 9.28087 47.6815 11.82 50.1958C14.3343 52.7349 17.3255 54.7523 20.6217 56.1319C23.918 57.5115 27.4544 58.2263 31.0277 58.2351C34.601 58.2439 38.1409 57.5465 41.4439 56.1831C44.7469 54.8197 47.748 52.8172 50.2747 50.2904C52.8015 47.7637 54.8041 44.7626 56.1675 41.4596C57.5308 38.1566 58.2282 34.6167 58.2194 31.0434C58.2106 27.4701 57.4958 23.9337 56.1162 20.6374C54.7366 17.3412 52.7192 14.35 50.1801 11.8357ZM7.75005 31.0157C7.74918 28.958 8.02202 26.9093 8.56138 24.9235C9.45021 26.8368 10.7411 28.4897 11.619 30.4527C12.7536 32.9762 15.8004 32.2763 17.1457 34.4875C18.3397 36.4504 17.0646 38.9328 17.9583 40.9866C18.6073 42.4773 20.1379 42.803 21.1939 43.8928C22.2728 44.9924 22.2498 46.4988 22.4145 47.9325C22.6003 49.6171 22.9018 51.2869 23.3167 52.9301C23.3167 52.9422 23.3167 52.9555 23.3263 52.9676C14.2649 49.7853 7.75005 41.1477 7.75005 31.0157ZM31.0001 54.2657C29.7016 54.2653 28.4055 54.1568 27.1251 53.9412C27.1384 53.613 27.1444 53.3067 27.1771 53.0936C27.4714 51.1682 28.4353 49.2852 29.7358 47.8441C31.0206 46.4225 32.7813 45.461 33.8663 43.848C34.9295 42.2738 35.248 40.1547 34.8097 38.3153C34.1642 35.5979 30.4721 34.6909 28.4813 33.2172C27.337 32.3696 26.3186 31.0593 24.8158 30.9528C24.1231 30.9043 23.5431 31.0533 22.8565 30.8765C22.2268 30.713 21.7327 30.3739 21.0619 30.4623C19.8086 30.627 19.0178 31.9663 17.6713 31.7847C16.3937 31.6139 15.0774 30.1184 14.7868 28.9014C14.4138 27.3369 15.6514 26.8295 16.9774 26.6903C17.5308 26.6321 18.152 26.5692 18.6836 26.7726C19.3835 27.0318 19.7141 27.7171 20.3426 28.0635C21.5208 28.7101 21.7594 27.6772 21.579 26.6309C21.3089 25.064 20.9941 24.4258 22.3915 23.3469C23.3603 22.6034 24.1885 22.0657 24.0335 20.73C23.9415 19.9453 23.5116 19.5905 23.9124 18.8095C24.2164 18.2149 25.0507 17.6785 25.5944 17.3237C26.9979 16.4082 31.6067 16.476 29.7237 13.9137C29.1703 13.1617 28.1495 11.8175 27.1808 11.6335C25.9698 11.4046 25.4322 12.756 24.5881 13.3518C23.7163 13.9682 22.0185 14.6681 21.1454 13.7151C19.9708 12.4327 21.9241 12.0125 22.3564 11.1164C22.5562 10.6986 22.3564 10.1186 22.0197 9.57246C22.4565 9.3884 22.9005 9.21765 23.3518 9.06023C23.6346 9.26912 23.9701 9.39493 24.3205 9.42351C25.1306 9.47679 25.8947 9.03843 26.6019 9.59062C27.3866 10.1961 27.9521 10.9614 28.9935 11.1503C30.001 11.3332 31.0679 10.7459 31.3173 9.71414C31.4687 9.08687 31.3173 8.42449 31.172 7.77664C35.7009 7.8027 40.1224 9.15903 43.8869 11.6771C43.6447 11.585 43.3552 11.5959 42.998 11.7618C42.263 12.1033 41.2216 12.9728 41.1356 13.835C41.0375 14.8134 42.481 14.9514 43.1663 14.9514C44.1956 14.9514 45.2383 14.4913 44.9065 13.3021C44.7624 12.7863 44.5662 12.2498 44.2501 11.9253C45.0099 12.4525 45.7377 13.0243 46.4298 13.6376C46.4189 13.6485 46.408 13.6582 46.3971 13.6703C45.6996 14.3968 44.8895 14.972 44.4124 15.856C44.0758 16.4784 43.6967 16.7739 43.015 16.935C42.6396 17.0234 42.2109 17.0561 41.8961 17.3079C41.0194 17.9982 41.5183 19.6571 42.349 20.1548C43.3988 20.7833 44.9561 20.4878 45.7481 19.5905C46.3669 18.8882 46.7313 17.6688 47.8442 17.67C48.3341 17.669 48.8048 17.8608 49.1544 18.204C49.6146 18.6811 49.5238 19.1268 49.6219 19.7225C49.795 20.7809 50.7286 20.2069 51.2966 19.6729C51.7106 20.4096 52.0841 21.1684 52.4155 21.9458C51.7906 22.8455 51.2942 23.8264 49.7914 22.7777C48.8917 22.1493 48.3383 21.2374 47.2085 20.9541C46.2215 20.7119 45.2104 20.9637 44.2356 21.1321C43.1276 21.3246 41.8137 21.4094 40.9733 22.2486C40.1608 23.0575 39.7309 24.14 38.8663 24.9526C37.194 26.5268 36.488 28.2451 37.5706 30.4708C38.612 32.6105 40.7905 33.7718 43.1409 33.6193C45.4502 33.4655 47.849 32.1262 47.7824 35.4817C47.7582 36.6696 48.0065 37.4918 48.371 38.595C48.7088 39.6122 48.6858 40.5979 48.7633 41.6478C48.837 42.8772 49.0292 44.0966 49.3373 45.2891C47.1668 48.0836 44.3863 50.3452 41.2082 51.901C38.0301 53.4567 34.5385 54.2656 31.0001 54.2657Z" fill="#F8F8F8"/>
</svg>
