<svg width="64" height="29" viewBox="0 0 64 29" fill="none" xmlns="http://www.w3.org/2000/svg">
<path d="M30.9545 21.8068V10.5568H32.8636V21.8068H30.9545ZM26.2841 17.1364V15.2273H37.5341V17.1364H26.2841Z" fill="#333333"/>
<path d="M20.5599 5.90998C21.1499 6.49998 21.1499 7.44998 20.5599 8.02998L16.6699 11.92L18.7899 21.11L17.3799 22.53L13.4999 15.1L9.59994 19L9.95994 21.47L8.88994 22.53L7.12994 19.35L3.93994 17.58L4.99994 16.5L7.49994 16.87L11.3699 13L3.93994 9.08998L5.35994 7.67998L14.5499 9.79998L18.4399 5.90998C18.9999 5.32998 19.9999 5.32998 20.5599 5.90998Z" fill="#222222"/>
<path d="M62 23H42V21H43V6C43 5.73478 43.1054 5.48043 43.2929 5.29289C43.4804 5.10536 43.7348 5 44 5H58C58.2652 5 58.5196 5.10536 58.7071 5.29289C58.8946 5.48043 59 5.73478 59 6V11H61V21H62V23ZM57 21H59V13H53V21H55V15H57V21ZM57 11V7H45V21H51V11H57ZM47 13H49V15H47V13ZM47 17H49V19H47V17ZM47 9H49V11H47V9Z" fill="black"/>
</svg>
